Coordinates
version=1
nRows=19
nColumns=36
inDegrees=yes

Units are S.I. units (second, meters, Newtons, ...)
If the header above contains a line with 'inDegrees', this indicates whether rotational values are in degrees (yes) or radians (no).

endheader
time	pelvis_tilt	pelvis_list	pelvis_rotation	pelvis_tx	pelvis_ty	pelvis_tz	hip_flexion_r	hip_adduction_r	hip_rotation_r	knee_angle_r	knee_angle_r_beta	ankle_angle_r	subtalar_angle_r	mtp_angle_r	hip_flexion_l	hip_adduction_l	hip_rotation_l	knee_angle_l	knee_angle_l_beta	ankle_angle_l	subtalar_angle_l	mtp_angle_l	lumbar_extension	lumbar_bending	lumbar_rotation	arm_flex_r	arm_add_r	arm_rot_r	elbow_flex_r	pro_sup_r	arm_flex_l	arm_add_l	arm_rot_l	elbow_flex_l	pro_sup_l
      0.00000000	     13.22859430	     -1.60141776	      0.16998429	      0.62092358	      1.05942172	      0.71113341	      7.08256008	     -0.30838066	      1.40577410	     62.58024953	      1.09223140	     -7.98189020	    -17.76532028	     -6.94271271	     -7.00288987	     -0.38130013	     -3.69026219	     12.09487234	      0.21109534	      9.64942816	     -2.04288915	     -6.94271271	    -27.05738007	      0.69599241	      4.63610111	      3.59320820	    -14.98259114	      2.80249268	     30.68722044	     83.33892305	     13.08594073	    -12.37219508	     12.58756483	     23.94387844	     80.79189447
      0.01666670	     13.91775311	     -1.26940664	      0.20801357	      0.62056377	      1.05856456	      0.71210106	      8.53719123	      0.06303173	      2.12268953	     62.21038373	      1.08577603	     -3.33869308	    -14.96690309	     -7.03911459	     -8.85437451	      0.20444332	     -1.68860626	     12.03716088	      0.21008809	     10.18719355	     -3.74529118	     -7.03911459	    -27.71311157	      0.13349319	      5.38425219	      2.98104304	    -14.78908096	      3.18431480	     30.71318285	     83.71457453	     14.50111827	    -12.54548933	     15.46770432	     24.57633414	     82.32171314
      0.03333330	     14.20437813	     -1.37189008	      0.25481981	      0.62096532	      1.05870678	      0.71271271	      9.70644264	      0.61374235	      2.51578503	     60.20134469	      1.05071168	     -0.14083529	    -13.41693967	     -7.08580251	    -10.71961019	      0.14388336	     -1.09719084	     11.01291800	      0.19221168	     10.06873087	     -3.37137613	     -7.08580251	    -28.16265287	      0.28397368	      5.54861872	      2.18443506	    -14.90890311	      3.56664908	     30.78916749	     83.31036269	     15.47915377	    -12.82264905	     16.69359445	     25.68162553	     82.38470273
      0.05000000	     14.26878518	     -1.73017063	      0.34770549	      0.62093679	      1.05804069	      0.71195026	     10.61744194	      0.94146993	      2.07289113	     56.97625434	      0.99442323	      1.56120885	    -12.37647700	     -7.11763261	    -12.56205332	     -0.30141472	     -0.88041808	      9.96211195	      0.17387165	      9.92970231	     -2.98941127	     -7.11763261	    -28.13490497	      0.79750614	      5.66758447	      0.68326522	    -14.99444301	      3.47581198	     30.90991620	     81.56184953	     16.08749366	    -12.89313214	     16.61800305	     27.67114162	     80.81524470
      0.06666670	     14.25767293	     -1.91027878	      0.16652157	      0.61786240	      1.05753602	      0.71046047	     11.37238153	      1.16806193	      1.95530675	     52.98239268	      0.92471720	      2.12826965	    -11.79691808	     -7.13724214	    -14.20222740	     -0.44519512	     -0.72806866	      9.19897107	      0.16055233	     10.26625230	     -2.52063731	     -7.13724214	    -28.09534824	      1.02280933	      5.89106651	     -1.07092452	    -14.98186509	      3.16191635	     30.60983644	     79.84028541	     16.94728675	    -12.87057516	     15.83184611	     29.72443608	     79.40882027
      0.08333330	     14.04307306	     -1.91731849	     -0.07040008	      0.61205661	      1.05572164	      0.70870384	     12.17695465	      1.17636891	      2.02155122	     48.40424268	      0.84481341	      2.12894697	    -11.65959714	     -7.15015351	    -15.39529162	     -0.36472354	     -0.38064626	      8.61074311	      0.15028582	     10.85686989	     -2.10114474	     -7.15015351	    -28.06210872	      1.06655685	      6.30364018	     -3.12147971	    -14.94803738	      2.34320647	     30.55232871	     77.41715181	     17.87486124	    -12.72456576	     14.53183352	     32.39044858	     77.08795786
      0.10000000	     13.66286887	     -1.90707518	     -0.28253947	      0.60679336	      1.05254980	      0.70851205	     12.99266285	      1.13985359	      2.11338153	     43.25197841	      0.75488943	      1.76718769	    -11.47087254	     -7.16101802	    -16.26652699	     -0.28052819	      0.11085002	      8.05321552	      0.14055513	     11.71204060	     -1.79794056	     -7.16101802	    -28.00636293	      1.06549563	      6.98040803	     -5.38787670	    -15.03138485	      1.31895989	     31.33837679	     75.43663604	     18.97337127	    -12.54986176	     13.55124355	     34.97837134	     75.20142960
      0.11666670	     13.09438570	     -1.84302906	     -0.45613812	      0.60558202	      1.04819665	      0.71088565	     13.90704427	      1.02715469	      2.15440871	     37.91605600	      0.66176002	      1.29859979	    -11.06541111	     -7.15735883	    -16.88242410	     -0.20693939	      0.72664750	      7.51300185	      0.13112662	     12.62223624	     -1.61386621	     -7.15735883	    -27.77277719	      1.00213128	      7.57154488	     -7.46755091	    -14.91550398	     -0.24935180	     32.47881358	     73.67040504	     19.68546406	    -12.53330477	     12.42881233	     37.61665776	     73.48679956
      0.13333330	     12.36587069	     -1.76512698	     -0.60087648	      0.60718101	      1.04353049	      0.71401495	     14.88815756	      0.88535233	      2.10694862	     32.55807693	      0.56824564	      0.84858478	    -10.45016730	     -7.16343101	    -17.33099358	     -0.17498287	      1.30224129	      6.97227709	      0.12168919	     13.49672728	     -1.49793049	     -7.16343101	    -27.33078093	      0.93972741	      8.07422567	     -9.20293241	    -14.60781309	     -1.72192822	     33.40152726	     72.27756217	     20.01140226	    -12.61172845	     11.25628803	     40.09877630	     72.00432865
      0.15000000	     11.44921298	     -1.63953401	     -0.71389684	      0.60804578	      1.04114956	      0.71561785	     15.87437278	      0.67080940	      2.09396636	     27.10556681	      0.47308139	      0.49433395	     -9.61850359	     -7.14669039	    -17.56956432	     -0.12123052	      1.87117581	      6.44032206	      0.11240482	     14.17446576	     -1.60553574	     -7.14669039	    -26.60275593	      0.88128994	      8.30235622	    -10.25074472	    -14.26884185	     -2.38765535	     33.29573069	     71.72490961	     20.05968751	    -12.82291053	     10.23058601	     42.31933395	     71.37562316
      0.16666670	     10.36472786	     -1.56691862	     -0.82513947	      0.60870144	      1.04065638	      0.71570127	     16.75266404	      0.45011623	      2.03658586	     21.59600181	      0.37692134	      0.51106698	     -8.29069263	     -7.14983848	    -17.62127984	     -0.16158244	      1.94729874	      5.99359443	      0.10460796	     15.09032409	     -0.80136170	     -7.14983848	    -25.65689866	      1.07137801	      7.65719765	    -10.55823550	    -13.96983365	     -2.68144043	     33.16988699	     70.48550218	     19.03987903	    -13.25525695	      8.04246818	     45.11583782	     69.72222818
      0.18333330	      9.26983916	     -1.54497721	     -0.96529358	      0.61053458	      1.04088109	      0.71589142	     17.36657892	      0.25551448	      1.95621240	     16.34980206	      0.28535788	      1.13710654	     -6.24561270	     -7.12556171	    -17.69509004	     -0.25990550	      2.08256089	      5.57322141	      0.09727106	     15.84459383	     -0.36423131	     -7.12556171	    -24.47632662	      1.29315897	      7.37409551	    -10.83452560	    -13.75410876	     -2.47041236	     32.44734385	     69.85573468	     18.32033421	    -13.36641218	      6.79399748	     47.12952184	     68.91330762
      0.20000000	      8.37647493	     -1.65043426	     -1.08986403	      0.61287752	      1.04150061	      0.71638973	     17.56808177	      0.20946553	      1.80936865	     11.85331813	      0.20687943	      2.20461111	     -3.74234582	     -7.11868764	    -17.97402276	     -0.53040169	      2.22432971	      5.32492839	      0.09293753	     16.64978070	      0.06168263	     -7.11868764	    -23.37204102	      1.69048872	      6.99633515	    -11.10241216	    -13.72869817	     -1.83404814	     31.96248589	     68.84186448	     17.42141328	    -13.43304261	      5.59848060	     48.91996895	     67.79325815
      0.21666670	      7.62244577	     -1.87283983	     -1.27602210	      0.61518684	      1.04179226	      0.71674011	     17.62482758	      0.37453438	      1.71609904	      8.71881023	      0.15217195	      3.16730452	     -1.59800473	     -7.15682517	    -18.33863036	     -0.96142594	      2.24371460	      5.47838492	      0.09561585	     17.34776886	     -0.03337858	     -7.15682517	    -22.30286843	      2.16116362	      6.76812994	    -11.41744562	    -13.91404727	     -0.81568497	     31.35177481	     67.96213832	     16.35039188	    -13.35645137	      4.57653500	     50.63385831	     66.93463699
      0.23333330	      7.17353514	     -2.28460230	     -1.26426366	      0.61803168	      1.04231648	      0.71691909	     17.24719188	      0.80669973	      1.41250076	      7.10999738	      0.12409286	      3.53722350	     -0.48457917	     -7.21333652	    -18.80525292	     -1.79312289	      1.66038897	      6.41844576	      0.11202301	     17.79537096	      0.04248411	     -7.21333652	    -21.54081471	      2.88098261	      6.54409281	    -11.71455961	    -14.24546775	      0.16320543	     31.07711505	     66.98821034	     15.47044878	    -13.06142462	      3.89561065	     51.44624577	     66.20138221
      0.25000000	      6.97201815	     -2.77445446	     -1.14286926	      0.62125168	      1.04214232	      0.71754322	     16.55760047	      1.44992928	      1.02857087	      7.12791679	      0.12440562	      2.86848153	     -0.70677937	     -7.22485381	    -19.10837189	     -2.88896253	      0.65521712	      8.61351649	      0.15033422	     17.33848931	     -0.67341311	     -7.22485381	    -21.13218254	      3.66373602	      6.33793121	    -11.86887146	    -14.76191522	      1.31690368	     31.13539411	     66.09765022	     14.57674507	    -12.62805206	      3.32695334	     52.06029306	     65.90372888
      0.26666670	      7.03502095	     -3.24725047	     -1.00946399	      0.62289303	      1.04126662	      0.71939688	     15.75733927	      2.14467954	      0.48709803	      8.34414488	      0.14563280	      1.58664037	     -1.01827759	     -7.26544241	    -18.99756258	     -4.06922981	     -0.55411907	     12.29166966	      0.21453011	     16.24536210	     -1.87972632	     -7.26544241	    -21.06771160	      4.39473229	      6.32042131	    -12.09160099	    -15.22912567	      1.53556486	     31.76305507	     65.28600569	     13.74303361	    -12.15958565	      3.09130302	     52.60197608	     65.28229473
      0.28333330	      7.08515087	     -3.58234462	     -1.01164974	      0.62163722	      1.03944590	      0.72305437	     15.26553161	      2.76576294	      0.25216555	     10.06840582	      0.17572683	      0.21134880	     -1.63417384	     -7.29600303	    -17.88946550	     -5.16864518	     -1.96363915	     17.49565554	      0.30535679	     14.87615703	     -3.11948155	     -7.29600303	    -20.95328136	      4.81677055	      6.36870753	    -11.41535196	    -15.74582682	      3.06230405	     30.85916982	     64.79628722	     13.21956933	    -11.83264267	      3.07668467	     52.24992971	     65.30783238
      0.30000000	      7.23366451	     -3.90561743	     -1.01577278	      0.61958952	      1.03768759	      0.72689367	     14.84898679	      3.33841325	      0.04806323	     11.95399584	      0.20863659	     -0.49686201	     -1.92540823	     -7.36373073	    -16.08317433	     -6.30935397	     -3.09228626	     23.60066726	      0.41190935	     13.07094484	     -4.72293014	     -7.36373073	    -21.21365921	      5.20733167	      5.90900844	     -9.99630415	    -16.67170552	      6.95851544	     30.14677391	     62.39832543	     12.15034504	    -11.77231552	      2.15949594	     52.77474919	     65.99194818
